<svg t="1605252825845" class="icon" viewBox="0 0 1024 1024" version="1.1" xmlns="http://www.w3.org/2000/svg" p-id="2850" width="300" height="300"><path d="M194.965925 554.808992c0 12.610202-10.310833 22.833031-23.058159 22.833031L85.446579 577.642023c-12.742209 0-23.057135-10.222829-23.057135-22.833031l0-85.615936c0-12.610202 10.314926-22.835078 23.057135-22.835078l86.461187 0c12.747325 0 23.058159 10.224876 23.058159 22.835078L194.965925 554.808992 194.965925 554.808992z" p-id="2851"></path><path d="M961.609533 554.808992c0 12.610202-10.31595 22.833031-23.059182 22.833031L310.249555 577.642023c-12.743232 0-23.054065-10.222829-23.054065-22.833031l0-85.615936c0-12.610202 10.310833-22.835078 23.054065-22.835078l628.300796 0c12.743232 0 23.059182 10.224876 23.059182 22.835078L961.609533 554.808992 961.609533 554.808992z" p-id="2852"></path><path d="M194.965925 866.259396c0 12.609179-10.310833 22.833031-23.058159 22.833031L85.446579 889.092427c-12.743232 0-23.058159-10.223852-23.058159-22.833031l0-85.617983c0-12.608156 10.314926-22.833031 23.058159-22.833031l86.461187 0c12.747325 0 23.058159 10.224876 23.058159 22.833031L194.965925 866.259396 194.965925 866.259396z" p-id="2853"></path><path d="M961.609533 866.259396c0 12.609179-10.31595 22.833031-23.059182 22.833031L310.249555 889.092427c-12.744255 0-23.055089-10.223852-23.055089-22.833031l0-85.617983c0-12.608156 10.310833-22.833031 23.055089-22.833031l628.300796 0c12.743232 0 23.059182 10.224876 23.059182 22.833031L961.609533 866.259396 961.609533 866.259396z" p-id="2854"></path><path d="M194.965925 243.358587c0 12.610202-10.310833 22.835078-23.058159 22.835078L85.446579 266.193665c-12.743232 0-23.058159-10.224876-23.058159-22.835078l0-85.615936c0-12.611226 10.314926-22.835078 23.058159-22.835078l86.461187 0c12.747325 0 23.058159 10.223852 23.058159 22.830985L194.965925 243.358587 194.965925 243.358587z" p-id="2855"></path><path d="M961.609533 243.358587c0 12.610202-10.316973 22.835078-23.059182 22.835078L310.249555 266.193665c-12.744255 0-23.055089-10.224876-23.055089-22.835078l0-85.615936c0-12.611226 10.310833-22.835078 23.055089-22.835078l628.300796 0c12.742209 0 23.059182 10.223852 23.059182 22.835078L961.609533 243.358587 961.609533 243.358587z" p-id="2856"></path></svg>